<?xml version="1.0" encoding="iso-8859-1"?>
<svg version="1.1" id="Layer_1" xmlns="http://www.w3.org/2000/svg" xmlns:xlink="http://www.w3.org/1999/xlink" x="0px" y="0px"
	viewBox="0 0 512 512" style="enable-background:new 0 0 512 512;" fill="yellow" xml:space="preserve">
<g>
	<g>
		<path d="M467.251,111.359c-28.582-41.669-68.35-73.705-115.002-92.647c-5.12-2.078-10.957,0.387-13.038,5.508
			c-2.079,5.121,0.387,10.957,5.508,13.038c43.005,17.461,79.669,47,106.025,85.423c26.978,39.332,41.24,85.432,41.24,133.319
			c0,130.124-105.862,235.985-235.985,235.985S20.015,386.122,20.015,256S125.876,20.015,256,20.015
			c5.527,0,10.007-4.481,10.007-10.007C266.007,4.481,261.527,0,256,0C114.84,0,0,114.84,0,256s114.84,256,256,256
			s256-114.84,256-256C512,204.053,496.526,154.037,467.251,111.359z"/>
	</g>
</g>
<g>
	<g>
		<path d="M212.878,136.432c-23.944,0-43.424,19.48-43.424,43.424c0,5.527,4.481,10.007,10.007,10.007
			c5.527,0,10.007-4.481,10.007-10.007c0-12.908,10.502-23.409,23.409-23.409s23.409,10.502,23.409,23.409
			c0,5.527,4.481,10.007,10.007,10.007c5.527,0,10.007-4.481,10.007-10.007C256.302,155.912,236.822,136.432,212.878,136.432z"/>
	</g>
</g>
<g>
	<g>
		<path d="M381.9,136.432c-23.944,0-43.424,19.48-43.424,43.424c0,5.527,4.481,10.007,10.007,10.007
			c5.527,0,10.007-4.481,10.007-10.007c0-12.908,10.502-23.409,23.409-23.409c12.907,0,23.409,10.502,23.409,23.409
			c0,5.527,4.481,10.007,10.007,10.007s10.007-4.481,10.007-10.007C425.324,155.912,405.845,136.432,381.9,136.432z"/>
	</g>
</g>
<g>
	<g>
		<path d="M391.365,311.594H192.219c-5.527,0-10.007,4.481-10.007,10.007c0,60.423,49.157,109.581,109.581,109.581
			s109.58-49.157,109.58-109.581C401.372,316.075,396.891,311.594,391.365,311.594z M380.802,331.609
			c-4.992,44.695-43.006,79.558-89.011,79.558s-84.019-34.863-89.011-79.558L380.802,331.609L380.802,331.609z"/>
	</g>
</g>
<g>
	<g>
		<circle cx="310.868" cy="17.167" r="10.007"/>
	</g>
</g>
</svg>
