<svg width="30" height="30" viewBox="0 0 30 30" fill="none" xmlns="http://www.w3.org/2000/svg">
<path d="M16.0295 4.98175L17.1516 3.87662C19.355 1.70644 22.9423 1.65273 25.1585 3.8104C25.9982 4.62981 26.5563 5.6877 26.7543 6.83549C26.9522 7.98329 26.7801 9.16332 26.2621 10.2098C26.0137 10.7097 25.93 11.2736 26.0226 11.8226C26.1154 12.3717 26.3798 12.8785 26.7792 13.2723C27.5136 12.5473 28.0956 11.687 28.4923 10.7404C28.8889 9.79378 29.0923 8.7795 29.0909 7.75547C29.0893 6.73146 28.8831 5.71774 28.4838 4.77226C28.0844 3.82677 27.4998 2.96805 26.7633 2.24515C23.6645 -0.789722 18.6343 -0.729329 15.5441 2.31407L4.84877 12.8475L3.96951 11.9816C1.72866 9.77457 1.71438 6.16703 3.99476 3.99926C4.83885 3.19932 5.91425 2.67713 7.07251 2.50476C8.23078 2.33239 9.4148 2.51834 10.4612 3.03694C10.9388 3.27799 11.4815 3.36422 12.0119 3.28332C12.5422 3.20242 13.033 2.95853 13.4142 2.58648L13.4415 2.55976C13.45 2.55146 13.4567 2.54159 13.4613 2.5307C13.4659 2.51983 13.4683 2.50817 13.4683 2.49639C13.4683 2.48461 13.4659 2.47294 13.4613 2.46207C13.4567 2.4512 13.45 2.44132 13.4415 2.43301C11.9694 1.01961 9.99678 0.225705 7.94095 0.219286C5.88513 0.212869 3.9074 0.994439 2.42627 2.39862C-0.764245 5.43207 -0.752844 10.4764 2.38298 13.5649L13.0752 24.0955L11.9394 25.2141C9.73589 27.3843 6.14846 27.438 3.93243 25.2803C3.09269 24.461 2.53465 23.403 2.33668 22.2553C2.13873 21.1075 2.31077 19.9275 2.82867 18.8809C3.07714 18.381 3.16088 17.8171 3.06821 17.2682C2.97552 16.7191 2.71104 16.2122 2.31171 15.8185C1.57736 16.5435 0.995229 17.4037 0.59858 18.3503C0.20193 19.297 -0.00146591 20.3112 7.95295e-06 21.3353C0.00148182 22.3593 0.207797 23.373 0.607171 24.3184C1.00654 25.264 1.59115 26.1227 2.32758 26.8456C5.42633 29.8806 10.4566 29.8203 13.5468 26.7768L24.256 16.2293L25.1386 17.0985C27.3421 19.2687 27.3966 22.8018 25.2058 24.9843C24.3739 25.8115 23.2997 26.361 22.1343 26.5561C20.969 26.7511 19.7709 26.5816 18.7082 26.0714C18.2005 25.8266 17.6277 25.744 17.07 25.8355C16.5124 25.9269 15.9976 26.1876 15.5978 26.5813C16.3339 27.3046 17.2074 27.878 18.1685 28.2686C19.1297 28.6592 20.1594 28.8596 21.1992 28.8582C22.2389 28.8566 23.2683 28.6534 24.2282 28.2601C25.1882 27.8667 26.0601 27.2909 26.7941 26.5656C29.8757 23.5137 29.8143 18.5595 26.7242 15.5161L16.0295 4.98175ZM14.6718 22.5223L6.44582 14.4206L14.4323 6.55496L22.6582 14.6566L14.6718 22.5223Z" fill="#CDDC39"/>
</svg>

